<?xml version="1.0" encoding="utf-8"?>
<!-- Generator: Adobe Illustrator 26.3.1, SVG Export Plug-In . SVG Version: 6.00 Build 0)  -->
<svg version="1.1" id="Layer_1" xmlns="http://www.w3.org/2000/svg" xmlns:xlink="http://www.w3.org/1999/xlink" x="0px" y="0px"
	 viewBox="0 0 103.54 38.04" style="enable-background:new 0 0 103.54 38.04;" xml:space="preserve">
<g>
	<path d="M0,0.3h4.98c3.03,0,4.98,1.98,4.98,5.01v10.98c0,3.03-1.95,5.01-4.98,5.01H0V0.3z M4.83,18.3c1.23,0,1.95-0.72,1.95-1.95
		V5.25c0-1.23-0.72-1.95-1.95-1.95H3.18v15H4.83z"/>
	<path d="M21.9,3l-6,15.3h6v3h-9.54v-2.7l6-15.3h-6v-3h9.54V3z"/>
	<path d="M37.35,6.84V5.07C37.35,3.75,36.6,3,35.43,3s-1.92,0.75-1.92,2.07v11.46c0,1.32,0.75,2.07,1.92,2.07s1.92-0.75,1.92-2.07
		v-3.72h-1.92v-3h5.1v6.72c0,3.03-2.04,5.07-5.1,5.07c-3.06,0-5.1-2.04-5.1-5.07V5.07c0-3.03,2.04-5.07,5.1-5.07
		c3.06,0,5.1,2.04,5.1,5.07v1.77H37.35z"/>
	<path d="M43.35,16.53V5.07c0-3.03,2.04-5.07,5.1-5.07c3.06,0,5.1,2.04,5.1,5.07v11.46c0,3.03-2.04,5.07-5.1,5.07
		C45.39,21.6,43.35,19.56,43.35,16.53z M50.37,16.53V5.07c0-1.32-0.75-2.07-1.92-2.07s-1.92,0.75-1.92,2.07v11.46
		c0,1.32,0.75,2.07,1.92,2.07S50.37,17.85,50.37,16.53z"/>
	<path d="M56.76,0.3h3.51l4.05,14.1V0.3h3.12v21h-3.36l-4.2-13.44V21.3h-3.12V0.3z"/>
	<path d="M77.67,6.84V5.07c0-1.32-0.75-2.07-1.92-2.07s-1.92,0.75-1.92,2.07v11.46c0,1.32,0.75,2.07,1.92,2.07s1.92-0.75,1.92-2.07
		v-3.72h-1.92v-3h5.1v6.72c0,3.03-2.04,5.07-5.1,5.07c-3.06,0-5.1-2.04-5.1-5.07V5.07c0-3.03,2.04-5.07,5.1-5.07
		c3.06,0,5.1,2.04,5.1,5.07v1.77H77.67z"/>
</g>
</svg>
