<?xml version="1.0" encoding="utf-8"?>
<!-- Generator: Adobe Illustrator 26.3.1, SVG Export Plug-In . SVG Version: 6.00 Build 0)  -->
<svg version="1.1" id="Layer_1" xmlns="http://www.w3.org/2000/svg" xmlns:xlink="http://www.w3.org/1999/xlink" x="0px" y="0px"
	 viewBox="0 0 103 38" style="enable-background:new 0 0 103 38;" xml:space="preserve">
<style type="text/css">
	.st0{enable-background:new    ;}
	.st1{fill:#FFFFFF;}
</style>
<g class="st0">
	<path class="st1" d="M11.44,8.4h4.98c3.03,0,4.98,1.98,4.98,5.01v10.98c0,3.03-1.95,5.01-4.98,5.01h-4.98V8.4z M16.27,26.4
		c1.23,0,1.95-0.72,1.95-1.95v-11.1c0-1.23-0.72-1.95-1.95-1.95h-1.65v15H16.27z"/>
	<path class="st1" d="M33.34,11.1l-6,15.3h6v3H23.8v-2.7l6-15.3h-6v-3h9.54V11.1z"/>
	<path class="st1" d="M48.79,14.94v-1.77c0-1.32-0.75-2.07-1.92-2.07s-1.92,0.75-1.92,2.07v11.46c0,1.32,0.75,2.07,1.92,2.07
		s1.92-0.75,1.92-2.07v-3.72h-1.92v-3h5.1v6.72c0,3.03-2.04,5.07-5.1,5.07c-3.06,0-5.1-2.04-5.1-5.07V13.17
		c0-3.03,2.04-5.07,5.1-5.07c3.06,0,5.1,2.04,5.1,5.07v1.77H48.79z"/>
	<path class="st1" d="M54.79,24.63V13.17c0-3.03,2.04-5.07,5.1-5.07c3.06,0,5.1,2.04,5.1,5.07v11.46c0,3.03-2.04,5.07-5.1,5.07
		C56.83,29.7,54.79,27.66,54.79,24.63z M61.81,24.63V13.17c0-1.32-0.75-2.07-1.92-2.07s-1.92,0.75-1.92,2.07v11.46
		c0,1.32,0.75,2.07,1.92,2.07S61.81,25.95,61.81,24.63z"/>
	<path class="st1" d="M68.2,8.4h3.51l4.05,14.1V8.4h3.12v21h-3.36l-4.2-13.44V29.4H68.2V8.4z"/>
	<path class="st1" d="M89.11,14.94v-1.77c0-1.32-0.75-2.07-1.92-2.07s-1.92,0.75-1.92,2.07v11.46c0,1.32,0.75,2.07,1.92,2.07
		s1.92-0.75,1.92-2.07v-3.72h-1.92v-3h5.1v6.72c0,3.03-2.04,5.07-5.1,5.07c-3.06,0-5.1-2.04-5.1-5.07V13.17
		c0-3.03,2.04-5.07,5.1-5.07c3.06,0,5.1,2.04,5.1,5.07v1.77H89.11z"/>
</g>
</svg>
