<?xml version="1.0" encoding="utf-8"?>
<!-- Generator: Adobe Illustrator 26.3.1, SVG Export Plug-In . SVG Version: 6.00 Build 0)  -->
<svg version="1.1" id="Layer_1" xmlns="http://www.w3.org/2000/svg" xmlns:xlink="http://www.w3.org/1999/xlink" x="0px" y="0px"
	 viewBox="0 0 103.54 38.04" style="enable-background:new 0 0 103.54 38.04;" xml:space="preserve">
<style type="text/css">
	.st0{fill:#FFFFFF;}
</style>
<g>
	<path class="st0" d="M11.34,10.5h4.98c3.03,0,4.98,1.98,4.98,5.01v10.98c0,3.03-1.95,5.01-4.98,5.01h-4.98V10.5z M16.17,28.5
		c1.23,0,1.95-0.72,1.95-1.95v-11.1c0-1.23-0.72-1.95-1.95-1.95h-1.65v15H16.17z"/>
	<path class="st0" d="M33.24,13.2l-6,15.3h6v3H23.7v-2.7l6-15.3h-6v-3h9.54V13.2z"/>
	<path class="st0" d="M48.69,17.04v-1.77c0-1.32-0.75-2.07-1.92-2.07s-1.92,0.75-1.92,2.07v11.46c0,1.32,0.75,2.07,1.92,2.07
		s1.92-0.75,1.92-2.07v-3.72h-1.92v-3h5.1v6.72c0,3.03-2.04,5.07-5.1,5.07c-3.06,0-5.1-2.04-5.1-5.07V15.27
		c0-3.03,2.04-5.07,5.1-5.07c3.06,0,5.1,2.04,5.1,5.07v1.77H48.69z"/>
	<path class="st0" d="M54.69,26.73V15.27c0-3.03,2.04-5.07,5.1-5.07c3.06,0,5.1,2.04,5.1,5.07v11.46c0,3.03-2.04,5.07-5.1,5.07
		C56.73,31.8,54.69,29.76,54.69,26.73z M61.71,26.73V15.27c0-1.32-0.75-2.07-1.92-2.07s-1.92,0.75-1.92,2.07v11.46
		c0,1.32,0.75,2.07,1.92,2.07S61.71,28.05,61.71,26.73z"/>
	<path class="st0" d="M68.1,10.5h3.51l4.05,14.1V10.5h3.12v21h-3.36l-4.2-13.44V31.5H68.1V10.5z"/>
	<path class="st0" d="M89.01,17.04v-1.77c0-1.32-0.75-2.07-1.92-2.07s-1.92,0.75-1.92,2.07v11.46c0,1.32,0.75,2.07,1.92,2.07
		s1.92-0.75,1.92-2.07v-3.72h-1.92v-3h5.1v6.72c0,3.03-2.04,5.07-5.1,5.07c-3.06,0-5.1-2.04-5.1-5.07V15.27
		c0-3.03,2.04-5.07,5.1-5.07c3.06,0,5.1,2.04,5.1,5.07v1.77H89.01z"/>
</g>
</svg>
