<?xml version="1.0" encoding="utf-8"?>
<!-- Generator: Adobe Illustrator 26.3.1, SVG Export Plug-In . SVG Version: 6.00 Build 0)  -->
<svg version="1.1" id="Layer_1" xmlns="http://www.w3.org/2000/svg" xmlns:xlink="http://www.w3.org/1999/xlink" x="0px" y="0px"
	 viewBox="0 0 24 24" style="enable-background:new 0 0 24 24;" xml:space="preserve">
<style type="text/css">
	.st0{fill-rule:evenodd;clip-rule:evenodd;fill:#24292F;}
</style>
<path class="st0" d="M12.01,0C5.37,0,0,5.41,0,12.1c0,5.35,3.44,9.88,8.21,11.48c0.6,0.12,0.82-0.26,0.82-0.58
	c0-0.28-0.02-1.24-0.02-2.24c-3.34,0.72-4.04-1.44-4.04-1.44c-0.54-1.4-1.33-1.76-1.33-1.76c-1.09-0.74,0.08-0.74,0.08-0.74
	c1.21,0.08,1.85,1.24,1.85,1.24c1.07,1.84,2.8,1.32,3.5,1c0.1-0.78,0.42-1.32,0.76-1.62c-2.66-0.28-5.47-1.32-5.47-5.97
	c0-1.32,0.48-2.4,1.23-3.24c-0.12-0.3-0.54-1.54,0.12-3.21c0,0,1.01-0.32,3.3,1.24c0.98-0.26,1.99-0.4,3-0.4c1.01,0,2.05,0.14,3,0.4
	c2.29-1.56,3.3-1.24,3.3-1.24c0.66,1.66,0.24,2.9,0.12,3.21c0.78,0.84,1.23,1.92,1.23,3.24c0,4.65-2.8,5.67-5.49,5.97
	c0.44,0.38,0.82,1.1,0.82,2.24c0,1.62-0.02,2.92-0.02,3.33c0,0.32,0.22,0.7,0.82,0.58C20.56,21.97,24,17.45,24,12.1
	C24.02,5.41,18.63,0,12.01,0z"/>
</svg>
